<svg width="133" height="13" viewBox="0 0 133 13" fill="none" xmlns="http://www.w3.org/2000/svg">
<path d="M9.752 12H7.112L5.656 8.208C5.53867 7.90933 5.35733 7.70133 5.112 7.584C4.87733 7.46667 4.57867 7.408 4.216 7.408H2.6V12H0.136V0.608H5.208C6.53067 0.608 7.53333 0.896 8.216 1.472C8.89867 2.048 9.24 2.87467 9.24 3.952C9.24 4.70933 9.03733 5.36 8.632 5.904C8.23733 6.448 7.66667 6.83733 6.92 7.072C7.592 7.21067 8.07733 7.67467 8.376 8.464L9.752 12ZM4.84 5.504C5.55467 5.504 6.07733 5.38667 6.408 5.152C6.73867 4.90667 6.904 4.528 6.904 4.016C6.904 3.504 6.73867 3.13067 6.408 2.896C6.07733 2.65067 5.55467 2.528 4.84 2.528H2.568V5.504H4.84ZM13.0641 0.608H20.9201V2.544H15.4961V5.232H20.5841V7.184H15.4961V10.064H20.9201V12H13.0641V0.608ZM35.5543 0.608V12H33.3463V5.776L30.7223 12H29.1063L26.4663 5.856V12H24.2743V0.608H26.2583L29.9383 9.008L33.5863 0.608H35.5543ZM44.6836 12.144C43.553 12.144 42.5663 11.9093 41.7236 11.44C40.8916 10.96 40.2463 10.2773 39.7876 9.392C39.3396 8.50667 39.1156 7.472 39.1156 6.288C39.1156 5.104 39.3396 4.07467 39.7876 3.2C40.2463 2.32533 40.8916 1.65333 41.7236 1.184C42.5663 0.704 43.553 0.464 44.6836 0.464C45.8143 0.464 46.7956 0.704 47.6276 1.184C48.4596 1.65333 49.0996 2.32533 49.5476 3.2C49.9956 4.07467 50.2196 5.104 50.2196 6.288C50.2196 7.472 49.9956 8.50667 49.5476 9.392C49.0996 10.2773 48.4596 10.96 47.6276 11.44C46.7956 11.9093 45.8143 12.144 44.6836 12.144ZM44.6836 10.192C45.6436 10.192 46.3903 9.856 46.9236 9.184C47.4676 8.512 47.7396 7.54667 47.7396 6.288C47.7396 5.02933 47.4676 4.06933 46.9236 3.408C46.3903 2.74667 45.6436 2.416 44.6836 2.416C43.7236 2.416 42.9716 2.74667 42.4276 3.408C41.8943 4.06933 41.6276 5.02933 41.6276 6.288C41.6276 7.55733 41.8943 8.528 42.4276 9.2C42.9716 9.86133 43.7236 10.192 44.6836 10.192ZM55.7381 2.64H52.1701V0.608H61.8341V2.64H58.2661V12H55.7381V2.64ZM64.761 0.608H72.617V2.544H67.193V5.232H72.281V7.184H67.193V10.064H72.617V12H64.761V0.608Z" fill="white"/>
<path d="M92.5151 0.608L88.4671 12H86.4671L83.8111 4.464L81.1391 12H79.1391L75.0911 0.608H77.6351L80.2591 8.48L83.0111 0.608H84.7551L87.4431 8.592L90.1311 0.608H92.5151ZM100.474 12.144C99.3436 12.144 98.3569 11.9093 97.5142 11.44C96.6822 10.96 96.0369 10.2773 95.5782 9.392C95.1302 8.50667 94.9062 7.472 94.9062 6.288C94.9062 5.104 95.1302 4.07467 95.5782 3.2C96.0369 2.32533 96.6822 1.65333 97.5142 1.184C98.3569 0.704 99.3436 0.464 100.474 0.464C101.605 0.464 102.586 0.704 103.418 1.184C104.25 1.65333 104.89 2.32533 105.338 3.2C105.786 4.07467 106.01 5.104 106.01 6.288C106.01 7.472 105.786 8.50667 105.338 9.392C104.89 10.2773 104.25 10.96 103.418 11.44C102.586 11.9093 101.605 12.144 100.474 12.144ZM100.474 10.192C101.434 10.192 102.181 9.856 102.714 9.184C103.258 8.512 103.53 7.54667 103.53 6.288C103.53 5.02933 103.258 4.06933 102.714 3.408C102.181 2.74667 101.434 2.416 100.474 2.416C99.5142 2.416 98.7622 2.74667 98.2182 3.408C97.6849 4.06933 97.4182 5.02933 97.4182 6.288C97.4182 7.55733 97.6849 8.528 98.2182 9.2C98.7622 9.86133 99.5142 10.192 100.474 10.192ZM119.177 12H116.537L115.081 8.208C114.964 7.90933 114.782 7.70133 114.537 7.584C114.302 7.46667 114.004 7.408 113.641 7.408H112.025V12H109.561V0.608H114.633C115.956 0.608 116.958 0.896 117.641 1.472C118.324 2.048 118.665 2.87467 118.665 3.952C118.665 4.70933 118.462 5.36 118.057 5.904C117.662 6.448 117.092 6.83733 116.345 7.072C117.017 7.21067 117.502 7.67467 117.801 8.464L119.177 12ZM114.265 5.504C114.98 5.504 115.502 5.38667 115.833 5.152C116.164 4.90667 116.329 4.528 116.329 4.016C116.329 3.504 116.164 3.13067 115.833 2.896C115.502 2.65067 114.98 2.528 114.265 2.528H111.993V5.504H114.265ZM129.945 12L124.985 6.736V12H122.489V0.608H124.985V5.616L129.769 0.608H132.745L127.449 6.048L132.953 12H129.945Z" fill="#ED455D"/>
</svg>
